<mxfile host="app.diagrams.net" modified="2024-03-03T16:10:10.860Z" agent="Mozilla/5.0 (Windows NT 10.0; Win64; x64) AppleWebKit/537.36 (KHTML, like Gecko) Chrome/122.0.0.0 Safari/537.36 Edg/122.0.0.0" etag="b26K0oUg7CUe8PDorDeq" version="21.2.3" type="device">
  <diagram id="RMdGkCpOLnXOpuCklzYu" name="1 oldal">
    <mxGraphModel dx="1034" dy="1564" grid="1" gridSize="10" guides="1" tooltips="1" connect="1" arrows="1" fold="1" page="0" pageScale="1" pageWidth="827" pageHeight="1169" background="none" math="0" shadow="0">
      <root>
        <mxCell id="0" />
        <mxCell id="1" parent="0" />
        <mxCell id="dFtzzFxKtMT_-8BJ7AIU-1" value="Főoldal" style="strokeWidth=2;html=1;shape=mxgraph.flowchart.start_1;whiteSpace=wrap;" vertex="1" parent="1">
          <mxGeometry x="800" y="-400" width="100" height="60" as="geometry" />
        </mxCell>
        <mxCell id="dFtzzFxKtMT_-8BJ7AIU-2" value="Órarendtervező&lt;br&gt;oldal" style="strokeWidth=2;html=1;shape=mxgraph.flowchart.terminator;whiteSpace=wrap;" vertex="1" parent="1">
          <mxGeometry x="620" y="-400" width="100" height="60" as="geometry" />
        </mxCell>
        <mxCell id="dFtzzFxKtMT_-8BJ7AIU-3" value="Tanulmányi átlagok oldal" style="strokeWidth=2;html=1;shape=mxgraph.flowchart.terminator;whiteSpace=wrap;" vertex="1" parent="1">
          <mxGeometry x="800" y="-550" width="100" height="60" as="geometry" />
        </mxCell>
        <mxCell id="dFtzzFxKtMT_-8BJ7AIU-4" value="Órarend&lt;br&gt;megtekintése" style="strokeWidth=2;html=1;shape=mxgraph.flowchart.terminator;whiteSpace=wrap;" vertex="1" parent="1">
          <mxGeometry x="620" y="-510" width="100" height="60" as="geometry" />
        </mxCell>
        <mxCell id="dFtzzFxKtMT_-8BJ7AIU-5" value="Adatok felvitele,&lt;br&gt;módosítása" style="strokeWidth=2;html=1;shape=mxgraph.flowchart.terminator;whiteSpace=wrap;dashed=1;" vertex="1" parent="1">
          <mxGeometry x="440" y="-400" width="100" height="60" as="geometry" />
        </mxCell>
        <mxCell id="dFtzzFxKtMT_-8BJ7AIU-6" value="Szemeszter&lt;br&gt;kiválasztása" style="strokeWidth=2;html=1;shape=mxgraph.flowchart.terminator;whiteSpace=wrap;dashed=1;" vertex="1" parent="1">
          <mxGeometry x="620" y="-290" width="100" height="60" as="geometry" />
        </mxCell>
        <mxCell id="dFtzzFxKtMT_-8BJ7AIU-7" value="" style="endArrow=classic;html=1;rounded=0;entryX=1;entryY=0.5;entryDx=0;entryDy=0;entryPerimeter=0;exitX=0;exitY=0.5;exitDx=0;exitDy=0;exitPerimeter=0;" edge="1" parent="1" source="dFtzzFxKtMT_-8BJ7AIU-1" target="dFtzzFxKtMT_-8BJ7AIU-2">
          <mxGeometry width="50" height="50" relative="1" as="geometry">
            <mxPoint x="850" y="-250" as="sourcePoint" />
            <mxPoint x="900" y="-300" as="targetPoint" />
          </mxGeometry>
        </mxCell>
        <mxCell id="dFtzzFxKtMT_-8BJ7AIU-9" value="" style="endArrow=none;html=1;rounded=0;exitX=0.5;exitY=0;exitDx=0;exitDy=0;exitPerimeter=0;" edge="1" parent="1" source="dFtzzFxKtMT_-8BJ7AIU-2" target="dFtzzFxKtMT_-8BJ7AIU-4">
          <mxGeometry width="50" height="50" relative="1" as="geometry">
            <mxPoint x="730" y="-420" as="sourcePoint" />
            <mxPoint x="780" y="-470" as="targetPoint" />
          </mxGeometry>
        </mxCell>
        <mxCell id="dFtzzFxKtMT_-8BJ7AIU-10" value="ha ki van választva szemeszter" style="text;html=1;strokeColor=none;fillColor=none;align=center;verticalAlign=middle;whiteSpace=wrap;rounded=0;" vertex="1" parent="1">
          <mxGeometry x="600" y="-440" width="60" height="30" as="geometry" />
        </mxCell>
        <mxCell id="dFtzzFxKtMT_-8BJ7AIU-12" value="" style="endArrow=classic;html=1;rounded=0;exitX=0.5;exitY=1;exitDx=0;exitDy=0;exitPerimeter=0;entryX=0.5;entryY=0;entryDx=0;entryDy=0;entryPerimeter=0;endFill=1;" edge="1" parent="1" source="dFtzzFxKtMT_-8BJ7AIU-2" target="dFtzzFxKtMT_-8BJ7AIU-6">
          <mxGeometry width="50" height="50" relative="1" as="geometry">
            <mxPoint x="830" y="-390" as="sourcePoint" />
            <mxPoint x="880" y="-440" as="targetPoint" />
          </mxGeometry>
        </mxCell>
        <mxCell id="dFtzzFxKtMT_-8BJ7AIU-13" value="ha nincs kiválasztva szemeszter" style="text;html=1;strokeColor=none;fillColor=none;align=center;verticalAlign=middle;whiteSpace=wrap;rounded=0;" vertex="1" parent="1">
          <mxGeometry x="600" y="-330" width="60" height="30" as="geometry" />
        </mxCell>
        <mxCell id="dFtzzFxKtMT_-8BJ7AIU-14" value="" style="endArrow=classic;html=1;rounded=0;exitX=0;exitY=0.5;exitDx=0;exitDy=0;exitPerimeter=0;entryX=0.5;entryY=1;entryDx=0;entryDy=0;entryPerimeter=0;" edge="1" parent="1" source="dFtzzFxKtMT_-8BJ7AIU-6" target="dFtzzFxKtMT_-8BJ7AIU-5">
          <mxGeometry width="50" height="50" relative="1" as="geometry">
            <mxPoint x="830" y="-410" as="sourcePoint" />
            <mxPoint x="880" y="-460" as="targetPoint" />
            <Array as="points">
              <mxPoint x="490" y="-260" />
            </Array>
          </mxGeometry>
        </mxCell>
        <mxCell id="dFtzzFxKtMT_-8BJ7AIU-15" value="" style="endArrow=classic;html=1;rounded=0;exitX=0;exitY=0.5;exitDx=0;exitDy=0;exitPerimeter=0;entryX=0.5;entryY=0;entryDx=0;entryDy=0;entryPerimeter=0;startArrow=classic;startFill=1;" edge="1" parent="1" source="dFtzzFxKtMT_-8BJ7AIU-4" target="dFtzzFxKtMT_-8BJ7AIU-5">
          <mxGeometry width="50" height="50" relative="1" as="geometry">
            <mxPoint x="830" y="-410" as="sourcePoint" />
            <mxPoint x="880" y="-460" as="targetPoint" />
            <Array as="points">
              <mxPoint x="490" y="-480" />
            </Array>
          </mxGeometry>
        </mxCell>
        <mxCell id="dFtzzFxKtMT_-8BJ7AIU-16" value="" style="endArrow=classic;html=1;rounded=0;exitX=0.5;exitY=0;exitDx=0;exitDy=0;exitPerimeter=0;entryX=0.5;entryY=1;entryDx=0;entryDy=0;entryPerimeter=0;" edge="1" parent="1" source="dFtzzFxKtMT_-8BJ7AIU-1" target="dFtzzFxKtMT_-8BJ7AIU-3">
          <mxGeometry width="50" height="50" relative="1" as="geometry">
            <mxPoint x="830" y="-300" as="sourcePoint" />
            <mxPoint x="880" y="-350" as="targetPoint" />
          </mxGeometry>
        </mxCell>
        <mxCell id="dFtzzFxKtMT_-8BJ7AIU-17" value="" style="endArrow=classic;html=1;rounded=0;exitX=1;exitY=0.5;exitDx=0;exitDy=0;exitPerimeter=0;entryX=1;entryY=0.5;entryDx=0;entryDy=0;entryPerimeter=0;" edge="1" parent="1" source="dFtzzFxKtMT_-8BJ7AIU-4" target="dFtzzFxKtMT_-8BJ7AIU-6">
          <mxGeometry width="50" height="50" relative="1" as="geometry">
            <mxPoint x="830" y="-300" as="sourcePoint" />
            <mxPoint x="880" y="-350" as="targetPoint" />
            <Array as="points">
              <mxPoint x="760" y="-480" />
              <mxPoint x="760" y="-260" />
            </Array>
          </mxGeometry>
        </mxCell>
        <mxCell id="dFtzzFxKtMT_-8BJ7AIU-18" value="Féléves átlagok megtekintése" style="strokeWidth=2;html=1;shape=mxgraph.flowchart.terminator;whiteSpace=wrap;" vertex="1" parent="1">
          <mxGeometry x="990" y="-580" width="100" height="60" as="geometry" />
        </mxCell>
        <mxCell id="dFtzzFxKtMT_-8BJ7AIU-19" value="Éves átlagok megtekintése" style="strokeWidth=2;html=1;shape=mxgraph.flowchart.terminator;whiteSpace=wrap;" vertex="1" parent="1">
          <mxGeometry x="900" y="-640" width="100" height="60" as="geometry" />
        </mxCell>
        <mxCell id="dFtzzFxKtMT_-8BJ7AIU-20" value="Összesített átlag megtekintése" style="strokeWidth=2;html=1;shape=mxgraph.flowchart.terminator;whiteSpace=wrap;" vertex="1" parent="1">
          <mxGeometry x="700" y="-640" width="100" height="60" as="geometry" />
        </mxCell>
        <mxCell id="dFtzzFxKtMT_-8BJ7AIU-21" value="Ösztöndíj-&lt;br&gt;számító" style="strokeWidth=2;html=1;shape=mxgraph.flowchart.terminator;whiteSpace=wrap;" vertex="1" parent="1">
          <mxGeometry x="610" y="-580" width="100" height="60" as="geometry" />
        </mxCell>
        <mxCell id="dFtzzFxKtMT_-8BJ7AIU-22" value="" style="endArrow=classic;startArrow=classic;html=1;rounded=0;entryX=0.89;entryY=0.89;entryDx=0;entryDy=0;entryPerimeter=0;exitX=0;exitY=0.5;exitDx=0;exitDy=0;exitPerimeter=0;" edge="1" parent="1" source="dFtzzFxKtMT_-8BJ7AIU-3" target="dFtzzFxKtMT_-8BJ7AIU-21">
          <mxGeometry width="50" height="50" relative="1" as="geometry">
            <mxPoint x="830" y="-440" as="sourcePoint" />
            <mxPoint x="880" y="-490" as="targetPoint" />
          </mxGeometry>
        </mxCell>
        <mxCell id="dFtzzFxKtMT_-8BJ7AIU-23" value="" style="endArrow=classic;startArrow=classic;html=1;rounded=0;entryX=0.11;entryY=0.89;entryDx=0;entryDy=0;entryPerimeter=0;exitX=1;exitY=0.5;exitDx=0;exitDy=0;exitPerimeter=0;" edge="1" parent="1" source="dFtzzFxKtMT_-8BJ7AIU-3" target="dFtzzFxKtMT_-8BJ7AIU-18">
          <mxGeometry width="50" height="50" relative="1" as="geometry">
            <mxPoint x="910" y="-520" as="sourcePoint" />
            <mxPoint x="890" y="-490" as="targetPoint" />
          </mxGeometry>
        </mxCell>
        <mxCell id="dFtzzFxKtMT_-8BJ7AIU-24" value="" style="endArrow=classic;startArrow=classic;html=1;rounded=0;entryX=0.5;entryY=1;entryDx=0;entryDy=0;entryPerimeter=0;exitX=0.89;exitY=0.11;exitDx=0;exitDy=0;exitPerimeter=0;" edge="1" parent="1" source="dFtzzFxKtMT_-8BJ7AIU-3" target="dFtzzFxKtMT_-8BJ7AIU-19">
          <mxGeometry width="50" height="50" relative="1" as="geometry">
            <mxPoint x="830" y="-440" as="sourcePoint" />
            <mxPoint x="880" y="-490" as="targetPoint" />
          </mxGeometry>
        </mxCell>
        <mxCell id="dFtzzFxKtMT_-8BJ7AIU-25" value="" style="endArrow=classic;startArrow=classic;html=1;rounded=0;entryX=0.5;entryY=1;entryDx=0;entryDy=0;entryPerimeter=0;exitX=0.11;exitY=0.11;exitDx=0;exitDy=0;exitPerimeter=0;" edge="1" parent="1" source="dFtzzFxKtMT_-8BJ7AIU-3" target="dFtzzFxKtMT_-8BJ7AIU-20">
          <mxGeometry width="50" height="50" relative="1" as="geometry">
            <mxPoint x="830" y="-440" as="sourcePoint" />
            <mxPoint x="880" y="-490" as="targetPoint" />
          </mxGeometry>
        </mxCell>
        <mxCell id="dFtzzFxKtMT_-8BJ7AIU-26" value="Felhasználó oldal" style="strokeWidth=2;html=1;shape=mxgraph.flowchart.terminator;whiteSpace=wrap;" vertex="1" parent="1">
          <mxGeometry x="800" y="-250" width="100" height="60" as="geometry" />
        </mxCell>
        <mxCell id="dFtzzFxKtMT_-8BJ7AIU-27" value="" style="endArrow=classic;html=1;rounded=0;exitX=0.5;exitY=1;exitDx=0;exitDy=0;exitPerimeter=0;entryX=0.5;entryY=0;entryDx=0;entryDy=0;entryPerimeter=0;" edge="1" parent="1" source="dFtzzFxKtMT_-8BJ7AIU-1" target="dFtzzFxKtMT_-8BJ7AIU-26">
          <mxGeometry width="50" height="50" relative="1" as="geometry">
            <mxPoint x="830" y="-330" as="sourcePoint" />
            <mxPoint x="880" y="-380" as="targetPoint" />
          </mxGeometry>
        </mxCell>
        <mxCell id="dFtzzFxKtMT_-8BJ7AIU-28" value="Felhasználói adatok, beállítások" style="strokeWidth=2;html=1;shape=mxgraph.flowchart.terminator;whiteSpace=wrap;" vertex="1" parent="1">
          <mxGeometry x="940" y="-120" width="100" height="60" as="geometry" />
        </mxCell>
        <mxCell id="dFtzzFxKtMT_-8BJ7AIU-29" value="" style="endArrow=none;html=1;rounded=0;entryX=0.5;entryY=0;entryDx=0;entryDy=0;entryPerimeter=0;exitX=1;exitY=0.5;exitDx=0;exitDy=0;exitPerimeter=0;" edge="1" parent="1" source="dFtzzFxKtMT_-8BJ7AIU-26" target="dFtzzFxKtMT_-8BJ7AIU-28">
          <mxGeometry width="50" height="50" relative="1" as="geometry">
            <mxPoint x="920" y="-250" as="sourcePoint" />
            <mxPoint x="880" y="-270" as="targetPoint" />
            <Array as="points">
              <mxPoint x="990" y="-220" />
            </Array>
          </mxGeometry>
        </mxCell>
        <mxCell id="dFtzzFxKtMT_-8BJ7AIU-30" value="ha be van jelentkezve" style="text;html=1;strokeColor=none;fillColor=none;align=center;verticalAlign=middle;whiteSpace=wrap;rounded=0;" vertex="1" parent="1">
          <mxGeometry x="920" y="-220" width="60" height="30" as="geometry" />
        </mxCell>
        <mxCell id="dFtzzFxKtMT_-8BJ7AIU-31" value="Bejelentkezés" style="strokeWidth=2;html=1;shape=mxgraph.flowchart.terminator;whiteSpace=wrap;dashed=1;" vertex="1" parent="1">
          <mxGeometry x="800" y="-120" width="100" height="60" as="geometry" />
        </mxCell>
        <mxCell id="dFtzzFxKtMT_-8BJ7AIU-32" value="Jegyek módosítása" style="strokeWidth=2;html=1;shape=mxgraph.flowchart.terminator;whiteSpace=wrap;dashed=1;" vertex="1" parent="1">
          <mxGeometry x="800" y="-690" width="100" height="60" as="geometry" />
        </mxCell>
        <mxCell id="dFtzzFxKtMT_-8BJ7AIU-33" value="" style="endArrow=classic;startArrow=classic;html=1;rounded=0;entryX=0.5;entryY=1;entryDx=0;entryDy=0;entryPerimeter=0;exitX=0.5;exitY=0;exitDx=0;exitDy=0;exitPerimeter=0;" edge="1" parent="1" source="dFtzzFxKtMT_-8BJ7AIU-3" target="dFtzzFxKtMT_-8BJ7AIU-32">
          <mxGeometry width="50" height="50" relative="1" as="geometry">
            <mxPoint x="830" y="-360" as="sourcePoint" />
            <mxPoint x="880" y="-410" as="targetPoint" />
          </mxGeometry>
        </mxCell>
        <mxCell id="dFtzzFxKtMT_-8BJ7AIU-34" value="Regisztráció" style="strokeWidth=2;html=1;shape=mxgraph.flowchart.terminator;whiteSpace=wrap;dashed=1;" vertex="1" parent="1">
          <mxGeometry x="660" y="-120" width="100" height="60" as="geometry" />
        </mxCell>
        <mxCell id="dFtzzFxKtMT_-8BJ7AIU-35" value="" style="endArrow=classic;html=1;rounded=0;exitX=0.5;exitY=1;exitDx=0;exitDy=0;exitPerimeter=0;entryX=0.5;entryY=0;entryDx=0;entryDy=0;entryPerimeter=0;" edge="1" parent="1" source="dFtzzFxKtMT_-8BJ7AIU-26" target="dFtzzFxKtMT_-8BJ7AIU-31">
          <mxGeometry width="50" height="50" relative="1" as="geometry">
            <mxPoint x="920" y="-120" as="sourcePoint" />
            <mxPoint x="970" y="-170" as="targetPoint" />
          </mxGeometry>
        </mxCell>
        <mxCell id="dFtzzFxKtMT_-8BJ7AIU-36" value="" style="endArrow=classic;html=1;rounded=0;exitX=0;exitY=0.5;exitDx=0;exitDy=0;exitPerimeter=0;entryX=0.5;entryY=0;entryDx=0;entryDy=0;entryPerimeter=0;" edge="1" parent="1" source="dFtzzFxKtMT_-8BJ7AIU-26" target="dFtzzFxKtMT_-8BJ7AIU-34">
          <mxGeometry width="50" height="50" relative="1" as="geometry">
            <mxPoint x="830" y="-240" as="sourcePoint" />
            <mxPoint x="880" y="-290" as="targetPoint" />
            <Array as="points">
              <mxPoint x="710" y="-220" />
            </Array>
          </mxGeometry>
        </mxCell>
        <mxCell id="dFtzzFxKtMT_-8BJ7AIU-37" value="ha nincs bejelentkezve" style="text;html=1;strokeColor=none;fillColor=none;align=center;verticalAlign=middle;whiteSpace=wrap;rounded=0;" vertex="1" parent="1">
          <mxGeometry x="720" y="-220" width="60" height="30" as="geometry" />
        </mxCell>
        <mxCell id="dFtzzFxKtMT_-8BJ7AIU-38" value="ha nincs bejelentkezve" style="text;html=1;strokeColor=none;fillColor=none;align=center;verticalAlign=middle;whiteSpace=wrap;rounded=0;" vertex="1" parent="1">
          <mxGeometry x="780" y="-170" width="60" height="30" as="geometry" />
        </mxCell>
        <mxCell id="dFtzzFxKtMT_-8BJ7AIU-40" value="" style="endArrow=none;html=1;rounded=0;entryX=0.5;entryY=1;entryDx=0;entryDy=0;entryPerimeter=0;exitX=0.5;exitY=1;exitDx=0;exitDy=0;exitPerimeter=0;" edge="1" parent="1" source="dFtzzFxKtMT_-8BJ7AIU-31" target="dFtzzFxKtMT_-8BJ7AIU-28">
          <mxGeometry width="50" height="50" relative="1" as="geometry">
            <mxPoint x="830" y="-240" as="sourcePoint" />
            <mxPoint x="880" y="-290" as="targetPoint" />
            <Array as="points">
              <mxPoint x="850" y="-30" />
              <mxPoint x="990" y="-30" />
            </Array>
          </mxGeometry>
        </mxCell>
        <mxCell id="dFtzzFxKtMT_-8BJ7AIU-41" value="" style="endArrow=none;html=1;rounded=0;entryX=0.5;entryY=1;entryDx=0;entryDy=0;entryPerimeter=0;exitX=0.5;exitY=1;exitDx=0;exitDy=0;exitPerimeter=0;" edge="1" parent="1" source="dFtzzFxKtMT_-8BJ7AIU-34" target="dFtzzFxKtMT_-8BJ7AIU-28">
          <mxGeometry width="50" height="50" relative="1" as="geometry">
            <mxPoint x="830" y="-240" as="sourcePoint" />
            <mxPoint x="880" y="-290" as="targetPoint" />
            <Array as="points">
              <mxPoint x="710" y="-30" />
              <mxPoint x="990" y="-30" />
            </Array>
          </mxGeometry>
        </mxCell>
        <mxCell id="dFtzzFxKtMT_-8BJ7AIU-42" value="Mintatanterv oldal" style="strokeWidth=2;html=1;shape=mxgraph.flowchart.terminator;whiteSpace=wrap;" vertex="1" parent="1">
          <mxGeometry x="980" y="-400" width="100" height="60" as="geometry" />
        </mxCell>
        <mxCell id="dFtzzFxKtMT_-8BJ7AIU-43" value="" style="endArrow=classic;html=1;rounded=0;exitX=1;exitY=0.5;exitDx=0;exitDy=0;exitPerimeter=0;entryX=0;entryY=0.5;entryDx=0;entryDy=0;entryPerimeter=0;" edge="1" parent="1" source="dFtzzFxKtMT_-8BJ7AIU-1" target="dFtzzFxKtMT_-8BJ7AIU-42">
          <mxGeometry width="50" height="50" relative="1" as="geometry">
            <mxPoint x="960" y="-390" as="sourcePoint" />
            <mxPoint x="1010" y="-440" as="targetPoint" />
          </mxGeometry>
        </mxCell>
        <mxCell id="dFtzzFxKtMT_-8BJ7AIU-44" value="Mintatantervek böngészése" style="strokeWidth=2;html=1;shape=mxgraph.flowchart.terminator;whiteSpace=wrap;" vertex="1" parent="1">
          <mxGeometry x="1080" y="-490" width="100" height="60" as="geometry" />
        </mxCell>
        <mxCell id="dFtzzFxKtMT_-8BJ7AIU-45" value="Kurzusok böngészése" style="strokeWidth=2;html=1;shape=mxgraph.flowchart.terminator;whiteSpace=wrap;" vertex="1" parent="1">
          <mxGeometry x="1140" y="-400" width="100" height="60" as="geometry" />
        </mxCell>
        <mxCell id="dFtzzFxKtMT_-8BJ7AIU-46" value="Saját haladás megtekintése" style="strokeWidth=2;html=1;shape=mxgraph.flowchart.terminator;whiteSpace=wrap;" vertex="1" parent="1">
          <mxGeometry x="1080" y="-310" width="100" height="60" as="geometry" />
        </mxCell>
        <mxCell id="dFtzzFxKtMT_-8BJ7AIU-47" value="Kurzus részleteinek megtekintése" style="strokeWidth=2;html=1;shape=mxgraph.flowchart.terminator;whiteSpace=wrap;" vertex="1" parent="1">
          <mxGeometry x="1300" y="-400" width="100" height="60" as="geometry" />
        </mxCell>
        <mxCell id="dFtzzFxKtMT_-8BJ7AIU-48" value="" style="endArrow=none;html=1;rounded=0;exitX=0.89;exitY=0.89;exitDx=0;exitDy=0;exitPerimeter=0;entryX=0.11;entryY=0.11;entryDx=0;entryDy=0;entryPerimeter=0;" edge="1" parent="1" source="dFtzzFxKtMT_-8BJ7AIU-42" target="dFtzzFxKtMT_-8BJ7AIU-46">
          <mxGeometry width="50" height="50" relative="1" as="geometry">
            <mxPoint x="1200" y="-540" as="sourcePoint" />
            <mxPoint x="1250" y="-590" as="targetPoint" />
          </mxGeometry>
        </mxCell>
        <mxCell id="dFtzzFxKtMT_-8BJ7AIU-49" value="Hírek megtekintése" style="strokeWidth=2;html=1;shape=mxgraph.flowchart.terminator;whiteSpace=wrap;" vertex="1" parent="1">
          <mxGeometry x="900" y="-480" width="100" height="60" as="geometry" />
        </mxCell>
        <mxCell id="dFtzzFxKtMT_-8BJ7AIU-50" value="" style="endArrow=none;html=1;rounded=0;entryX=0.11;entryY=0.89;entryDx=0;entryDy=0;entryPerimeter=0;exitX=0.855;exitY=0.145;exitDx=0;exitDy=0;exitPerimeter=0;" edge="1" parent="1" source="dFtzzFxKtMT_-8BJ7AIU-1" target="dFtzzFxKtMT_-8BJ7AIU-49">
          <mxGeometry width="50" height="50" relative="1" as="geometry">
            <mxPoint x="830" y="-280" as="sourcePoint" />
            <mxPoint x="880" y="-330" as="targetPoint" />
          </mxGeometry>
        </mxCell>
        <mxCell id="dFtzzFxKtMT_-8BJ7AIU-51" value="" style="endArrow=none;html=1;rounded=0;exitX=0.89;exitY=0.11;exitDx=0;exitDy=0;exitPerimeter=0;entryX=0.11;entryY=0.89;entryDx=0;entryDy=0;entryPerimeter=0;" edge="1" parent="1" source="dFtzzFxKtMT_-8BJ7AIU-42" target="dFtzzFxKtMT_-8BJ7AIU-44">
          <mxGeometry width="50" height="50" relative="1" as="geometry">
            <mxPoint x="1260" y="-440" as="sourcePoint" />
            <mxPoint x="1310" y="-490" as="targetPoint" />
          </mxGeometry>
        </mxCell>
        <mxCell id="dFtzzFxKtMT_-8BJ7AIU-52" value="" style="endArrow=none;html=1;rounded=0;entryX=0;entryY=0.5;entryDx=0;entryDy=0;entryPerimeter=0;exitX=1;exitY=0.5;exitDx=0;exitDy=0;exitPerimeter=0;" edge="1" parent="1" source="dFtzzFxKtMT_-8BJ7AIU-42" target="dFtzzFxKtMT_-8BJ7AIU-45">
          <mxGeometry width="50" height="50" relative="1" as="geometry">
            <mxPoint x="830" y="-280" as="sourcePoint" />
            <mxPoint x="880" y="-330" as="targetPoint" />
          </mxGeometry>
        </mxCell>
        <mxCell id="dFtzzFxKtMT_-8BJ7AIU-54" value="" style="endArrow=classic;html=1;rounded=0;entryX=0;entryY=0.5;entryDx=0;entryDy=0;entryPerimeter=0;exitX=1;exitY=0.5;exitDx=0;exitDy=0;exitPerimeter=0;" edge="1" parent="1" source="dFtzzFxKtMT_-8BJ7AIU-45" target="dFtzzFxKtMT_-8BJ7AIU-47">
          <mxGeometry width="50" height="50" relative="1" as="geometry">
            <mxPoint x="960" y="-240" as="sourcePoint" />
            <mxPoint x="1010" y="-290" as="targetPoint" />
          </mxGeometry>
        </mxCell>
      </root>
    </mxGraphModel>
  </diagram>
</mxfile>
